<svg width="21" height="18" viewBox="0 0 21 18" fill="none" xmlns="http://www.w3.org/2000/svg">
<path d="M14.6697 0.102051C12.899 0.102051 11.3142 0.982051 10.3262 2.33205C9.82154 1.64086 9.16622 1.07944 8.41225 0.692345C7.65829 0.305249 6.82643 0.103136 5.98271 0.102051C2.97945 0.102051 0.543579 2.60205 0.543579 5.69205C0.543579 6.88205 0.729449 7.98205 1.05227 9.00205C2.59793 14.0021 7.36206 16.9921 9.71967 17.8121C10.0523 17.9321 10.6001 17.9321 10.9327 17.8121C13.2903 16.9921 18.0544 14.0021 19.6001 9.00205C19.9229 7.98205 20.1088 6.88205 20.1088 5.69205C20.1088 2.60205 17.6729 0.102051 14.6697 0.102051Z" fill="white"/>
</svg>
